<svg preserveAspectRatio="none" width="100%" height="100%" overflow="visible" style="display: block;" viewBox="0 0 28 28" fill="none" xmlns="http://www.w3.org/2000/svg">
<g id="WR_button-01 1" clip-path="url(#clip0_7_301)">
<path id="Vector" d="M4.67578 0H1.87578V28H4.67578V0Z" fill="var(--fill-0, black)"/>
<path id="Vector_2" d="M10.2758 5.02906H4.15625V22.4H10.2758V5.02906Z" fill="var(--fill-0, black)"/>
<path id="Vector_3" d="M15.8758 7.56164H9.75625V19.868H15.8758V7.56164Z" fill="var(--fill-0, black)"/>
<path id="Vector_4" d="M21.473 9.8H15.3535V18.2H21.473V9.8Z" fill="var(--fill-0, black)"/>
<path id="Vector_5" d="M7.47578 2.8H4.67578V5.6H7.47578V2.8Z" fill="var(--fill-0, black)"/>
<path id="Vector_6" d="M10.2758 2.8H7.47578V5.6H10.2758V2.8Z" fill="var(--fill-0, black)"/>
<path id="Vector_7" d="M7.47578 22.4H4.67578V25.2H7.47578V22.4Z" fill="var(--fill-0, black)"/>
<path id="Vector_8" d="M10.2758 22.4H7.47578V25.2H10.2758V22.4Z" fill="var(--fill-0, black)"/>
<path id="Vector_9" d="M13.0758 19.6H10.2758V22.4H13.0758V19.6Z" fill="var(--fill-0, black)"/>
<path id="Vector_10" d="M15.8758 19.6H13.0758V22.4H15.8758V19.6Z" fill="var(--fill-0, black)"/>
<path id="Vector_11" d="M13.0758 5.6H10.2758V8.4H13.0758V5.6Z" fill="var(--fill-0, black)"/>
<path id="Vector_12" d="M15.8758 5.6H13.0758V8.4H15.8758V5.6Z" fill="var(--fill-0, black)"/>
<path id="Vector_13" d="M18.6758 16.8H15.8758V19.6H18.6758V16.8Z" fill="var(--fill-0, black)"/>
<path id="Vector_14" d="M21.4758 16.8H18.6758V19.6H21.4758V16.8Z" fill="var(--fill-0, black)"/>
<path id="Vector_15" d="M18.6758 8.4H15.8758V11.2H18.6758V8.4Z" fill="var(--fill-0, black)"/>
<path id="Vector_16" d="M21.4758 8.4H18.6758V11.2H21.4758V8.4Z" fill="var(--fill-0, black)"/>
<path id="Vector_17" d="M24.2758 11.2H21.4758V14H24.2758V11.2Z" fill="var(--fill-0, black)"/>
<path id="Vector_18" d="M27.0758 12.6H24.2758V15.4H27.0758V12.6Z" fill="var(--fill-0, black)"/>
<path id="Vector_19" d="M24.2758 14H21.4758V16.8H24.2758V14Z" fill="var(--fill-0, black)"/>
</g>
<defs>
<clipPath id="clip0_7_301">
<rect width="28" height="28" fill="white"/>
</clipPath>
</defs>
</svg>
