<svg preserveAspectRatio="none" width="100%" height="100%" overflow="visible" style="display: block;" viewBox="0 0 149.034 20.6299" fill="none" xmlns="http://www.w3.org/2000/svg">
<g id="Group 23">
<path id="Vector" d="M13.7489 13.7694C13.0986 14.7019 12.3254 15.542 11.4281 16.2956C11.1035 16.5681 10.7694 16.8252 10.4258 17.067H17.0697C16.7249 16.8252 16.3908 16.5681 16.0662 16.2956C15.1713 15.542 14.3969 14.7019 13.7477 13.7694" fill="var(--fill-0, #B62126)"/>
<path id="Vector_2" d="M11.9216 5.34363H8.27747V8.1139H3.48186V5.34363H0V17.0669H8.01496L6.86587 15.5443L7.17969 15.369C8.66766 14.5384 9.84538 13.5324 10.6795 12.3819C11.504 11.242 11.9216 9.88531 11.9216 8.35088V5.34363ZM8.27747 13.9803H3.48186V10.7704H8.27747V13.9803Z" fill="var(--fill-0, #B62126)"/>
<path id="Vector_3" d="M23.4671 13.9803H18.8815V8.28337H23.4671V13.9803ZM33.1036 15.0124C31.8412 15.0124 30.8138 13.9898 30.8138 12.7326C30.8138 11.4755 31.8412 10.4517 33.1036 10.4517C34.3661 10.4517 35.3947 11.4755 35.3947 12.7326C35.3947 13.9898 34.3673 15.0124 33.1036 15.0124ZM47.4225 8.33669H52.0677V17.0409H63.203V13.7813H55.6021V8.36631H63.203V5.33773L34.946 5.3401V2.68713H31.2625V5.34366H15.377V8.35091C15.377 9.88534 15.7946 11.2409 16.6179 12.3819C17.4544 13.5348 18.6321 14.5408 20.1177 15.369L20.4327 15.5444L19.2836 17.067H26.7914V8.33788H30.179L29.58 8.88293C28.4942 9.86994 27.8725 11.274 27.8725 12.7338C27.8725 15.6072 30.2196 17.9438 33.1048 17.9438C35.9901 17.9438 38.3372 15.6072 38.3372 12.7338C38.3372 11.274 37.7143 9.86994 36.6285 8.88293L36.0295 8.33788H43.8905" fill="var(--fill-0, #B62126)"/>
<path id="Vector_4" d="M46.0693 11.6058C46.5371 10.3925 46.8222 9.03696 46.9165 7.57599L46.9332 7.31295L46.8556 7.30821L46.7781 7.30347V7.30821H43.6566L43.6542 7.59021C43.6423 9.24313 43.1853 10.7029 42.2963 11.9316C41.3918 13.1817 40.1174 14.2694 38.5078 15.1676L38.3789 15.241L40.1413 17.5634L40.195 17.5421C40.4778 17.4319 41.0685 17.1677 41.8476 16.6286C42.2032 16.3762 42.5457 16.1119 42.8655 15.843C43.4132 15.382 43.9382 14.8607 44.425 14.2943L44.5515 14.1474L49.0739 17.5611L51.0057 15.1427" fill="var(--fill-0, #B62126)"/>
<path id="Vector_5" d="M71.0411 20.5577C70.8943 20.5577 70.7475 20.5032 70.6389 20.393C70.5256 20.2828 70.4707 20.137 70.4707 19.9948V16.9283C70.4707 16.7873 70.5256 16.6392 70.6389 16.529C70.7475 16.4212 70.8943 16.3667 71.0411 16.3667H72.0386C72.7116 16.3667 73.2665 16.5575 73.2665 17.4509C73.2665 17.9355 73.0266 18.2815 72.5481 18.3751V18.3846C73.1734 18.4722 73.3392 18.8739 73.3392 19.4498C73.3392 20.5126 72.4085 20.5577 72.0338 20.5577H71.0411ZM71.3525 18.0789H71.9443C72.14 18.0789 72.4085 17.9521 72.4085 17.5457C72.4085 17.2352 72.1973 17.0089 71.899 17.0089H71.3525V18.0789ZM71.3525 19.9178H71.8453C72.0338 19.9178 72.4539 19.9083 72.4539 19.3206C72.4539 18.9486 72.3119 18.7234 71.8692 18.7234H71.3513V19.9166L71.3525 19.9178Z" fill="var(--fill-0, #231F20)"/>
<path id="Vector_6" d="M76.6205 16.3667V19.3372C76.6205 19.9652 76.2661 20.6287 75.1922 20.6287C74.2185 20.6287 73.752 20.1299 73.752 19.3372V16.9283C73.752 16.7873 73.8068 16.6392 73.9178 16.529C74.0312 16.4212 74.1779 16.3667 74.3211 16.3667H74.6337V19.2791C74.6337 19.7969 74.8581 19.9995 75.1767 19.9995C75.5633 19.9995 75.7399 19.746 75.7399 19.2791V16.9271C75.7399 16.7861 75.7948 16.638 75.9057 16.5278C76.0155 16.42 76.1623 16.3655 76.3091 16.3655H76.6193L76.6205 16.3667Z" fill="var(--fill-0, #231F20)"/>
<path id="Vector_7" d="M78.2919 20.6287C77.1977 20.6287 76.9936 19.9889 77.039 19.2625H77.9244C77.9244 19.6642 77.9411 20.0007 78.4267 20.0007C78.7238 20.0007 78.8718 19.81 78.8718 19.5256C78.8718 18.7684 77.0951 18.7234 77.0951 17.4757C77.0951 16.8157 77.4101 16.2932 78.4852 16.2932C79.3455 16.2932 79.7715 16.6783 79.7106 17.5563H78.8527C78.8527 17.2411 78.799 16.9236 78.4434 16.9236C78.157 16.9236 77.9864 17.0812 77.9864 17.3703C77.9864 18.163 79.7655 18.0942 79.7655 19.4166C79.7655 20.5008 78.9649 20.6299 78.2919 20.6299" fill="var(--fill-0, #231F20)"/>
<path id="Vector_8" d="M79.9609 20.5577L81.0146 16.7779C81.048 16.6653 81.1184 16.5586 81.221 16.4816C81.3236 16.4022 81.4441 16.3667 81.5623 16.3667H82.2961L83.4404 20.5565H82.9571C82.8342 20.5565 82.709 20.5174 82.6087 20.438C82.5025 20.3586 82.4333 20.246 82.4047 20.1299L82.2794 19.6263H81.073L80.8332 20.5577H79.9621H79.9609ZM81.6637 17.1736H81.6517L81.2508 18.9865H82.0897L81.6637 17.1736Z" fill="var(--fill-0, #231F20)"/>
<path id="Vector_9" d="M83.8535 20.5577V16.9283C83.8535 16.7873 83.9108 16.6392 84.0218 16.529C84.1327 16.4212 84.2771 16.3667 84.4227 16.3667H85.0479L86.1708 19.2697H86.1803V16.3667H87.0049V20.5565H85.8438L84.69 17.49H84.678V20.5565H83.8535V20.5577Z" fill="var(--fill-0, #231F20)"/>
<path id="Vector_10" d="M89.1201 18.4639C89.1201 17.3537 89.1201 16.2932 90.5794 16.2932C91.4791 16.2932 91.8419 16.7897 91.8085 17.689H90.9422C90.9422 17.1309 90.842 16.9224 90.5794 16.9224C90.0819 16.9224 90.0174 17.3857 90.0174 18.4627C90.0174 19.5398 90.0819 20.0007 90.5794 20.0007C90.9875 20.0007 90.9684 19.477 90.9816 19.1488H91.855C91.855 20.2662 91.4028 20.6287 90.5806 20.6287C89.1213 20.6287 89.1213 19.5588 89.1213 18.4627" fill="var(--fill-0, #231F20)"/>
<path id="Vector_11" d="M95.2766 16.3667V19.3372C95.2766 19.9652 94.9187 20.6287 93.8435 20.6287C92.8723 20.6287 92.4033 20.1299 92.4033 19.3372V16.9283C92.4033 16.7873 92.4618 16.6392 92.5716 16.529C92.6849 16.4212 92.8281 16.3667 92.9725 16.3667H93.2899V19.2791C93.2899 19.7969 93.5094 19.9995 93.8304 19.9995C94.2182 19.9995 94.3912 19.746 94.3912 19.2791V16.9271C94.3912 16.7861 94.4461 16.638 94.5595 16.5278C94.6728 16.42 94.816 16.3655 94.9604 16.3655H95.2754L95.2766 16.3667Z" fill="var(--fill-0, #231F20)"/>
<path id="Vector_12" d="M96.3953 20.5577C96.2486 20.5577 96.103 20.5032 95.9944 20.393C95.8811 20.2828 95.8262 20.137 95.8262 19.9948V16.9283C95.8262 16.7873 95.8811 16.6392 95.9944 16.529C96.103 16.4212 96.2486 16.3667 96.3953 16.3667H96.7104V19.8621H98.0313V20.5577H96.3953Z" fill="var(--fill-0, #231F20)"/>
<path id="Vector_13" d="M100.461 16.3667V17.061H99.4761V20.5564H99.1635C99.0167 20.5564 98.8736 20.5019 98.7626 20.3917C98.6492 20.2815 98.5943 20.1358 98.5943 19.9936V17.061H97.6123V16.9271C97.6123 16.7861 97.6672 16.638 97.7794 16.5278C97.8891 16.42 98.0359 16.3655 98.1827 16.3655H100.459L100.461 16.3667Z" fill="var(--fill-0, #231F20)"/>
<path id="Vector_14" d="M103.745 16.3667V19.3372C103.745 19.9652 103.387 20.6287 102.31 20.6287C101.341 20.6287 100.872 20.1299 100.872 19.3372V16.9283C100.872 16.7873 100.927 16.6392 101.038 16.529C101.149 16.4212 101.296 16.3667 101.441 16.3667H101.756V19.2791C101.756 19.7969 101.977 19.9995 102.299 19.9995C102.683 19.9995 102.859 19.746 102.859 19.2791V16.9271C102.859 16.7861 102.915 16.638 103.025 16.5278C103.136 16.42 103.281 16.3655 103.428 16.3655H103.743L103.745 16.3667Z" fill="var(--fill-0, #231F20)"/>
<path id="Vector_15" d="M105.178 20.5577H104.865C104.718 20.5577 104.572 20.5032 104.462 20.393C104.351 20.2828 104.296 20.137 104.296 19.9948V16.9283C104.296 16.7873 104.351 16.6392 104.462 16.529C104.573 16.4212 104.719 16.3667 104.865 16.3667H105.928C106.528 16.3667 106.914 16.7482 106.914 17.4651C106.914 17.9983 106.705 18.3964 106.13 18.49V18.5019C106.326 18.5279 106.9 18.573 106.9 19.3254C106.9 19.5932 106.914 20.3823 106.997 20.5565H106.129C106.013 20.3005 106.036 20.0173 106.036 19.7472C106.036 19.246 106.086 18.8206 105.406 18.8206H105.178V20.5565V20.5577ZM105.178 18.1796H105.57C105.921 18.1796 106.02 17.8289 106.02 17.5611C106.02 17.1606 105.852 17.0089 105.57 17.0089H105.178V18.1796Z" fill="var(--fill-0, #231F20)"/>
<path id="Vector_16" d="M107.272 20.5577L108.328 16.7779C108.359 16.6653 108.428 16.5586 108.53 16.4816C108.634 16.4022 108.756 16.3667 108.876 16.3667H109.608L110.754 20.5565H110.266C110.147 20.5565 110.02 20.5174 109.918 20.438C109.812 20.3586 109.747 20.246 109.716 20.1299L109.59 19.6263H108.387L108.146 20.5577H107.272ZM108.975 17.1736H108.963L108.561 18.9865H109.404L108.975 17.1736Z" fill="var(--fill-0, #231F20)"/>
<path id="Vector_17" d="M111.735 20.5577C111.591 20.5577 111.445 20.5032 111.334 20.393C111.221 20.2828 111.166 20.137 111.166 19.9948V16.9283C111.166 16.7873 111.221 16.6392 111.334 16.529C111.445 16.4212 111.592 16.3667 111.735 16.3667H112.05V19.8621H113.373V20.5577H111.735Z" fill="var(--fill-0, #231F20)"/>
<path id="Vector_18" d="M115.715 20.5577C115.568 20.5577 115.424 20.5032 115.314 20.393C115.203 20.2828 115.146 20.137 115.146 19.9948V16.9283C115.146 16.7873 115.203 16.6392 115.314 16.529C115.424 16.4212 115.569 16.3667 115.715 16.3667H117.337V17.0089H116.027V18.0836H117.28V18.7282H116.027V20.5577H115.715Z" fill="var(--fill-0, #231F20)"/>
<path id="Vector_19" d="M117.888 18.4639C117.888 17.3537 117.888 16.2932 119.345 16.2932C120.802 16.2932 120.802 17.3537 120.802 18.4639C120.802 19.5742 120.802 20.6299 119.345 20.6299C117.888 20.6299 117.888 19.56 117.888 18.4639ZM119.905 18.4639C119.905 17.3869 119.843 16.9236 119.345 16.9236C118.846 16.9236 118.785 17.3869 118.785 18.4639C118.785 19.541 118.847 20.0019 119.345 20.0019C119.842 20.0019 119.905 19.5363 119.905 18.4639Z" fill="var(--fill-0, #231F20)"/>
<path id="Vector_20" d="M124.222 16.3667V19.3372C124.222 19.9652 123.865 20.6287 122.787 20.6287C121.818 20.6287 121.352 20.1299 121.352 19.3372V16.9283C121.352 16.7873 121.404 16.6392 121.517 16.529C121.628 16.4212 121.775 16.3667 121.922 16.3667H122.235V19.2791C122.235 19.7969 122.458 19.9995 122.776 19.9995C123.163 19.9995 123.341 19.746 123.341 19.2791V16.9271C123.341 16.7861 123.396 16.638 123.507 16.5278C123.62 16.42 123.764 16.3655 123.909 16.3655H124.224L124.222 16.3667Z" fill="var(--fill-0, #231F20)"/>
<path id="Vector_21" d="M124.771 20.5577V16.9283C124.771 16.7873 124.824 16.6392 124.935 16.529C125.048 16.4212 125.193 16.3667 125.339 16.3667H125.962L127.088 19.2697H127.097V16.3667H127.923V20.5565H126.758L125.607 17.49H125.594V20.5565H124.771V20.5577Z" fill="var(--fill-0, #231F20)"/>
<path id="Vector_22" d="M128.472 16.9283C128.472 16.7872 128.524 16.6391 128.634 16.5301C128.745 16.4223 128.892 16.3678 129.038 16.3678H129.942C131.102 16.3678 131.315 17.1321 131.315 18.4402C131.315 19.0824 131.417 20.5576 129.906 20.5576H129.038C128.892 20.5576 128.744 20.5031 128.634 20.3929C128.523 20.2827 128.472 20.1369 128.472 19.9947V16.9283ZM129.355 19.9177H129.783C130.319 19.9177 130.423 19.5137 130.423 18.4639C130.423 17.6901 130.423 17.01 129.81 17.01H129.356V19.9177H129.355Z" fill="var(--fill-0, #231F20)"/>
<path id="Vector_23" d="M131.522 20.5577L132.576 16.7779C132.607 16.6653 132.678 16.5586 132.78 16.4816C132.884 16.4022 133.003 16.3667 133.126 16.3667H133.858L135.002 20.5565H134.519C134.393 20.5565 134.27 20.5174 134.168 20.438C134.062 20.3586 133.995 20.246 133.964 20.1299L133.837 19.6263H132.635L132.395 20.5577H131.524H131.522ZM133.226 17.1736H133.214L132.811 18.9865H133.652L133.226 17.1736Z" fill="var(--fill-0, #231F20)"/>
<path id="Vector_24" d="M137.716 16.3667V17.061H136.732V20.5564H136.42C136.271 20.5564 136.126 20.5019 136.016 20.3917C135.906 20.2815 135.851 20.1358 135.851 19.9936V17.061H134.866V16.9271C134.866 16.7861 134.923 16.638 135.032 16.5278C135.143 16.42 135.289 16.3655 135.435 16.3655H137.716V16.3667Z" fill="var(--fill-0, #231F20)"/>
<path id="Vector_25" d="M138.835 20.5577C138.686 20.5577 138.541 20.5032 138.431 20.393C138.32 20.2828 138.265 20.137 138.265 19.9948V16.9283C138.265 16.7873 138.32 16.6392 138.431 16.529C138.541 16.4212 138.686 16.3667 138.835 16.3667H139.148V20.5565H138.835V20.5577Z" fill="var(--fill-0, #231F20)"/>
<path id="Vector_26" d="M139.696 18.4639C139.696 17.3537 139.696 16.2932 141.153 16.2932C142.61 16.2932 142.61 17.3537 142.61 18.4639C142.61 19.5742 142.61 20.6299 141.153 20.6299C139.696 20.6299 139.696 19.56 139.696 18.4639ZM141.716 18.4639C141.716 17.3869 141.652 16.9236 141.154 16.9236C140.657 16.9236 140.594 17.3869 140.594 18.4639C140.594 19.541 140.656 20.0019 141.154 20.0019C141.653 20.0019 141.716 19.5363 141.716 18.4639Z" fill="var(--fill-0, #231F20)"/>
<path id="Vector_27" d="M143.16 20.5577V16.9283C143.16 16.7873 143.215 16.6392 143.326 16.529C143.437 16.4212 143.584 16.3667 143.731 16.3667H144.353L145.476 19.2697H145.488V16.3667H146.313V20.5565H145.149L143.994 17.49H143.985V20.5565H143.16V20.5577Z" fill="var(--fill-0, #231F20)"/>
<path id="Vector_28" d="M149.034 4.73345C149.034 4.50121 148.845 4.31281 148.612 4.31281H146.32V1.22262C146.32 0.992749 146.241 0.76288 146.083 0.574483C145.926 0.3849 145.713 0.271151 145.487 0.232049L144.172 0.0128445C143.869 -0.0345511 143.689 0.0495761 143.633 0.259302C143.576 0.469027 143.646 0.606474 143.845 0.674013C144.157 0.788948 144.407 0.907437 144.593 1.02593C144.777 1.14441 144.87 1.41575 144.87 1.83639V6.00957C144.08 6.25603 141.97 6.85085 140.162 6.85085H138.908C138.815 6.85085 138.753 6.83426 138.724 6.80227C138.695 6.76909 138.682 6.68496 138.682 6.54988V3.1848L138.685 3.05564C138.685 2.96915 138.717 2.88383 138.781 2.81748C138.846 2.75231 138.932 2.7215 139.015 2.7215H142.743C142.972 2.7215 143.158 2.53311 143.158 2.30324C143.158 2.07337 142.972 1.88734 142.743 1.88734V1.87431H138.037C137.859 1.87431 137.121 1.69183 137.121 1.69183C136.816 1.64444 136.638 1.72738 136.582 1.93592C136.525 2.14565 136.69 2.33167 136.806 2.39803C136.933 2.4632 136.982 2.49993 137.081 2.60064C137.17 2.6907 137.218 2.88383 137.231 3.1848V6.54988C137.231 6.85559 137.331 7.12219 137.539 7.34731C137.74 7.56889 138.008 7.68145 138.341 7.68145H140.005C141.995 7.68145 144.166 7.11152 144.872 6.90654V9.78819C144.872 9.90549 144.917 10.0098 145.008 10.1046C145.098 10.2005 145.212 10.2479 145.352 10.2479C145.688 10.2479 145.931 10.1519 146.087 9.95881C146.243 9.76923 146.32 9.52988 146.32 9.24669V5.16001H148.612C148.845 5.16001 149.034 4.97161 149.034 4.73582M133.879 12.9542C134.027 12.767 134.105 12.5229 134.105 12.2302V1.2238C134.105 0.993934 134.027 0.764065 133.871 0.575667C133.71 0.386085 133.496 0.272336 133.272 0.233234L131.956 0.0140294C131.653 -0.0333662 131.473 0.050761 131.414 0.260487C131.359 0.470212 131.434 0.607659 131.641 0.675198C131.948 0.790132 132.191 0.905067 132.375 1.02C132.561 1.13494 132.652 1.39561 132.652 1.80795V5.30338H131.69V1.64444C131.69 1.41575 131.613 1.1847 131.452 0.993934C131.291 0.805536 131.078 0.690602 130.85 0.652685L129.541 0.446514C129.237 0.396749 129.058 0.479691 129.001 0.690602C128.944 0.895588 129.021 1.03659 129.229 1.10294C129.532 1.2084 129.777 1.32096 129.961 1.43945C130.148 1.56031 130.241 1.82928 130.241 2.25229V12.3606C130.241 12.4779 130.285 12.5798 130.374 12.6758C130.464 12.7706 130.587 12.818 130.738 12.818C131.068 12.818 131.312 12.7232 131.462 12.5324C131.615 12.3393 131.69 12.1011 131.69 11.8144V6.14821H132.652V12.7895C132.652 12.895 132.699 12.9969 132.79 13.0917C132.878 13.1876 133.001 13.2327 133.152 13.2327C133.484 13.2327 133.726 13.1426 133.879 12.9554M129.017 2.0627H123.738C123.699 2.0627 123.639 2.08996 123.554 2.14209C123.468 2.19304 123.427 2.2511 123.427 2.30679C123.427 2.46083 123.502 2.59827 123.655 2.72269C123.805 2.84829 123.952 2.90753 124.095 2.90753H125.851C125.68 3.80331 125.317 4.82942 124.762 5.98351C124.206 7.13403 123.55 8.10683 122.791 8.89834C122.725 8.9564 122.687 9.02749 122.683 9.11399C122.677 9.19811 122.694 9.27039 122.732 9.32727C122.836 9.42561 122.974 9.47419 123.145 9.47893C123.317 9.48486 123.459 9.45168 123.572 9.38651C124.064 9.0346 124.546 8.55353 125.016 7.9445C125.485 7.34139 125.857 6.7525 126.132 6.19086L128.536 9.22892C128.642 9.34386 128.836 9.40547 129.121 9.41376C129.406 9.4268 129.556 9.28698 129.578 9.00024C129.597 8.77866 129.553 8.54879 129.45 8.30471C129.345 8.06299 129.185 7.8189 128.965 7.58311L126.617 5.2157C126.798 4.83535 126.952 4.44196 127.086 4.03555C127.22 3.62794 127.319 3.25352 127.386 2.90872H129.016C129.248 2.90872 129.436 2.7215 129.436 2.48808C129.436 2.25466 129.25 2.06389 129.016 2.06389M122.016 5.72402C122.016 5.49059 121.828 5.30219 121.597 5.30219H119.306V1.2238C119.306 0.993934 119.229 0.764065 119.07 0.575667C118.911 0.386085 118.698 0.272336 118.474 0.233234L117.157 0.0140294C116.854 -0.0333662 116.674 0.050761 116.617 0.260487C116.561 0.470212 116.63 0.607659 116.832 0.675198C117.144 0.790132 117.393 0.905067 117.577 1.02C117.761 1.13494 117.854 1.40154 117.854 1.82217V8.88649C117.276 9.06896 116.832 9.21826 116.05 9.33793C115.267 9.45642 114.525 9.52277 113.821 9.52988V8.05706C114.178 7.97294 114.536 7.82956 114.893 7.61865C115.511 7.25489 115.819 6.68852 115.819 5.91952C115.819 5.23229 115.536 4.69553 114.968 4.31163C114.397 3.92535 113.757 3.73103 113.042 3.73103C112.197 3.73103 111.528 3.9526 111.031 4.39575C110.535 4.83298 110.287 5.34367 110.287 5.91952C110.287 6.58899 110.566 7.13285 111.12 7.54282C111.497 7.82127 111.913 8.00493 112.37 8.09498V9.53107H109.362C109.325 9.53107 109.268 9.55951 109.184 9.61046C109.104 9.66378 109.064 9.71354 109.064 9.76094C109.064 9.9126 109.139 10.0524 109.292 10.1768C109.444 10.3001 109.595 10.3617 109.749 10.3617H113.254C114.183 10.3617 115.097 10.2977 116 10.1674C116.901 10.0394 117.361 9.90075 117.853 9.74672V12.8073C117.853 12.9021 117.898 12.9981 117.99 13.0928C118.081 13.1888 118.194 13.2338 118.336 13.2338C118.669 13.2338 118.913 13.1438 119.07 12.9566C119.228 12.7694 119.306 12.5253 119.306 12.2326V6.14939H121.597C121.829 6.14939 122.016 5.96099 122.016 5.72638M113.067 7.35205C112.67 7.35205 112.328 7.23238 112.04 6.99659C111.75 6.76316 111.605 6.40414 111.605 5.91715C111.605 5.51429 111.729 5.18489 111.975 4.92895C112.219 4.67065 112.581 4.54149 113.054 4.54149C113.482 4.54149 113.835 4.65761 114.105 4.88511C114.377 5.11735 114.514 5.45741 114.514 5.91715C114.514 6.46694 114.353 6.84492 114.037 7.04517C113.717 7.24778 113.395 7.35087 113.067 7.35087M116.587 3.04261C116.587 2.81274 116.403 2.62671 116.177 2.62671H109.793C109.753 2.62671 109.694 2.6516 109.613 2.70255C109.533 2.75587 109.491 2.808 109.491 2.85303C109.491 3.00825 109.567 3.14569 109.72 3.26892C109.87 3.39689 110.028 3.45614 110.189 3.45614H116.177C116.405 3.45614 116.587 3.27129 116.587 3.04379M114.976 1.70961C114.976 1.57334 114.932 1.45723 114.849 1.35651C114.764 1.25579 114.64 1.20247 114.479 1.19063L111.419 0.921655C111.277 0.921655 111.16 0.952462 111.07 1.02C110.979 1.08754 110.934 1.15982 110.934 1.23565C110.934 1.35888 111.009 1.49277 111.154 1.63022C111.301 1.77004 111.479 1.84705 111.688 1.86601L114.365 2.09588C114.468 2.09588 114.597 2.06744 114.747 2.01175C114.9 1.95251 114.977 1.85298 114.977 1.70961M107.985 7.13048C107.985 6.89706 107.797 6.70747 107.566 6.70747H95.8129C95.7711 6.70747 95.7126 6.73236 95.6267 6.78568C95.542 6.83663 95.4978 6.88876 95.4978 6.93497C95.4978 7.08664 95.573 7.22646 95.7257 7.35561C95.8785 7.4895 96.0229 7.55349 96.1661 7.55349H101.333V10.3593C101.333 10.4541 101.378 10.5524 101.468 10.646C101.558 10.7408 101.68 10.7894 101.832 10.7894C102.164 10.7894 102.404 10.6911 102.557 10.5027C102.71 10.3119 102.785 10.0714 102.785 9.78582V7.5523H107.567C107.799 7.5523 107.986 7.36153 107.986 7.1293M105.108 5.11498C105.301 4.92066 105.399 4.66354 105.399 4.40523V1.91104C105.399 1.65629 105.301 1.39798 105.108 1.20247C104.915 1.00815 104.658 0.909807 104.404 0.909807H99.2458C99.0656 0.909807 98.3306 0.724964 98.3306 0.724964C98.0275 0.677568 97.8473 0.76051 97.79 0.969051C97.734 1.17878 97.8986 1.36717 98.018 1.42879C98.1421 1.4987 98.1934 1.53543 98.2924 1.63377C98.3938 1.73331 98.4427 1.97621 98.4427 2.35774V4.27608C98.4427 4.58652 98.5442 4.84838 98.7494 5.07233C98.9523 5.29864 99.2267 5.4112 99.5668 5.4112H104.405C104.659 5.4112 104.916 5.31286 105.109 5.11617M103.95 4.23105C103.95 4.314 103.916 4.39931 103.849 4.46448C103.785 4.52846 103.701 4.56282 103.614 4.56282H100.135C100.029 4.56282 99.9617 4.54623 99.9343 4.51424C99.9057 4.4787 99.8925 4.40168 99.8925 4.27608V2.08996C99.8925 2.00346 99.9236 1.91696 99.988 1.85416C100.055 1.78899 100.138 1.75582 100.223 1.75582H103.948V4.23224L103.95 4.23105ZM95.0015 4.73345C95.0015 4.50121 94.8129 4.31281 94.5826 4.31281H92.2916V1.22262C92.2916 0.992749 92.2129 0.76288 92.0542 0.574483C91.8955 0.3849 91.6819 0.271151 91.4575 0.232049L90.1426 0.0128445C89.8371 -0.0345511 89.657 0.0495761 89.6021 0.259302C89.5448 0.469027 89.6152 0.606474 89.8157 0.674013C90.1271 0.788948 90.3765 0.907437 90.5626 1.02593C90.7464 1.14441 90.8395 1.41575 90.8395 1.83639V9.78819C90.8395 9.90549 90.8848 10.0098 90.9743 10.1046C91.065 10.2005 91.1807 10.2479 91.3227 10.2479C91.6556 10.2479 91.899 10.1519 92.0566 9.95881C92.2129 9.76923 92.2916 9.52988 92.2916 9.24669V5.16001H94.5826C94.8141 5.16001 95.0015 4.97161 95.0015 4.73582M89.3443 7.80705C89.3443 7.55349 89.2871 7.29162 89.1713 7.02976C89.0603 6.7679 88.8742 6.5333 88.6188 6.33423L86.088 4.47159C86.3398 4.05806 86.5713 3.60899 86.7765 3.11726C86.8934 2.83288 86.9937 2.53903 87.076 2.23333C87.1357 2.01175 87.1834 1.86246 87.0247 1.64207C86.8672 1.42405 86.5951 1.36954 86.5951 1.36954L85.1609 0.960757C84.9902 0.915731 84.8303 0.915731 84.6776 0.960757C84.5272 1.00815 84.4294 1.07569 84.3924 1.16219C84.3757 1.21906 84.3781 1.28897 84.4091 1.37784C84.4354 1.46434 84.4974 1.5295 84.5929 1.5769C84.81 1.7025 85.026 1.86246 85.2396 2.05678C85.452 2.25229 85.4997 2.49756 85.3768 2.79615C85.0236 3.66586 84.5439 4.48462 83.9306 5.25361C83.3185 6.02379 82.587 6.80227 81.7315 7.59496C81.6659 7.66013 81.6313 7.7407 81.6265 7.83312C81.6205 7.92317 81.6396 7.99782 81.6742 8.05469C81.7697 8.1483 81.9081 8.19807 82.0895 8.20399C82.2696 8.2111 82.4093 8.17792 82.5155 8.11157C83.1037 7.71937 83.6729 7.26437 84.2242 6.74895C84.7742 6.23233 85.2157 5.73705 85.5463 5.26191L88.3372 8.01085C88.4411 8.11749 88.6367 8.16844 88.9195 8.16844C89.2023 8.16844 89.3467 8.04759 89.3467 7.80705M80.611 8.39002C80.611 8.15541 80.4237 7.96701 80.1922 7.96701H68.5558C68.5188 7.96701 68.4556 7.99189 68.3696 8.04521C68.2849 8.09853 68.2432 8.15423 68.2432 8.21228C68.2432 8.35566 68.3195 8.49073 68.4711 8.6187C68.6214 8.74786 68.7682 8.81065 68.9114 8.81065H73.9253V12.9187C73.9253 13.0253 73.9695 13.1237 74.0614 13.2196C74.1509 13.3168 74.2666 13.363 74.4098 13.363C74.7415 13.363 74.9861 13.2658 75.1424 13.0751C75.2976 12.8843 75.3775 12.6461 75.3775 12.3594V8.81065H80.1922C80.4237 8.81065 80.611 8.62344 80.611 8.39002ZM77.8988 6.23115C78.0933 6.03564 78.1912 5.77971 78.1912 5.52258V1.71909C78.1912 1.49159 78.1136 1.26409 77.9597 1.07451C77.8046 0.886109 77.5957 0.771174 77.3726 0.729703L76.313 0.534196C76.0087 0.489171 75.8274 0.568558 75.7725 0.778284C75.7164 0.989194 75.7904 1.12664 76.0004 1.19418C76.2951 1.29964 76.4944 1.40154 76.591 1.50225C76.6925 1.60178 76.7414 1.84468 76.7414 2.22385V3.01417H72.6856V2.13854C72.6856 1.91459 72.6092 1.68709 72.4541 1.4987C72.3037 1.31385 72.0949 1.19537 71.8754 1.15389L70.8194 0.948908C70.5043 0.903882 70.323 0.984455 70.2717 1.19537C70.218 1.40509 70.292 1.54254 70.4936 1.61008C70.7871 1.71672 70.9852 1.82573 71.0831 1.94066C71.1809 2.0556 71.2334 2.3222 71.2334 2.74283V5.37921C71.2334 5.69439 71.3372 5.96455 71.5389 6.18968C71.7429 6.41362 72.0162 6.52382 72.3574 6.52382H77.196C77.4526 6.52382 77.7067 6.42547 77.9012 6.23115M76.7402 5.34722C76.7402 5.43135 76.7068 5.51784 76.6412 5.58538C76.5755 5.64937 76.4884 5.68373 76.4013 5.68373H72.9254C72.8204 5.68373 72.7548 5.66714 72.725 5.6387C72.6975 5.61027 72.6832 5.53206 72.6832 5.41002V4.19314C72.6832 4.10664 72.7166 4.02251 72.781 3.95971C72.8467 3.89336 72.9338 3.86137 73.0185 3.86137H76.739V5.34604L76.7402 5.34722ZM84.5201 9.15664C84.4616 9.36637 84.5344 9.50263 84.7325 9.57135C85.026 9.66615 85.2241 9.77278 85.3231 9.88653C85.4222 10.0015 85.4723 10.2693 85.4723 10.6911V11.8013C85.4723 12.1046 85.5773 12.3712 85.7861 12.5976C85.9949 12.8203 86.2658 12.9317 86.5987 12.9317H92.6448C92.8715 12.9317 93.0589 12.7469 93.0589 12.517C93.0589 12.2871 92.8727 12.1011 92.6448 12.1011H87.1798C87.0664 12.1011 86.9937 12.0845 86.9674 12.0525C86.9364 12.0193 86.9244 11.9317 86.9244 11.7883V10.0939C86.9244 9.86758 86.8469 9.63889 86.693 9.45168C86.5355 9.26328 86.329 9.14835 86.1059 9.10569L85.0582 8.91492C84.7563 8.86753 84.575 8.9481 84.5189 9.15901M97.543 9.15664C97.4858 9.36637 97.5598 9.50263 97.7698 9.57135C98.0633 9.66615 98.259 9.77278 98.3616 9.88653C98.4606 10.0015 98.5108 10.2693 98.5108 10.6911V11.8013C98.5108 12.1046 98.6122 12.3712 98.8162 12.5976C99.0179 12.8203 99.2864 12.9317 99.6193 12.9317H105.8C106.028 12.9317 106.213 12.7469 106.213 12.517C106.213 12.2871 106.027 12.1011 105.8 12.1011H100.202C100.098 12.1011 100.032 12.0845 100.005 12.0525C99.9737 12.0193 99.9593 11.9317 99.9593 11.7883V10.0951C99.9593 9.86758 99.8842 9.64008 99.7279 9.45049C99.5727 9.2621 99.3639 9.14953 99.1408 9.10806L98.08 8.91256C97.7769 8.86516 97.5967 8.94573 97.5419 9.15664M138.545 9.15664C138.487 9.36637 138.557 9.50263 138.757 9.57135C139.051 9.66615 139.248 9.77278 139.349 9.88653C139.448 10.0015 139.498 10.2693 139.498 10.6911V11.8013C139.498 12.1046 139.603 12.3712 139.81 12.5976C140.021 12.8203 140.292 12.9317 140.624 12.9317H146.789C147.016 12.9317 147.202 12.7469 147.202 12.517C147.202 12.2871 147.016 12.1011 146.789 12.1011H141.207C141.094 12.1011 141.021 12.0845 140.992 12.0525C140.966 12.0193 140.952 11.9317 140.952 11.7883V10.0939C140.952 9.86758 140.874 9.63889 140.72 9.45168C140.565 9.26328 140.356 9.14835 140.133 9.10569L139.088 8.91492C138.782 8.86753 138.602 8.9481 138.547 9.15901" fill="var(--fill-0, #231F20)"/>
</g>
</svg>
