<svg preserveAspectRatio="none" width="100%" height="100%" overflow="visible" style="display: block;" viewBox="0 0 70 70" fill="none" xmlns="http://www.w3.org/2000/svg">
<g id="Home">
<path id="Vector" d="M37.1875 8.75H32.8125V61.25H37.1875V8.75Z" fill="var(--fill-0, #FFFEF7)"/>
<path id="Vector_2" d="M32.8125 10.9375H30.625V61.25H32.8125V10.9375Z" fill="var(--fill-0, #FFFEF7)"/>
<path id="Vector_3" d="M39.375 10.9375H37.1875V61.25H39.375V10.9375Z" fill="var(--fill-0, #FFFEF7)"/>
<path id="Vector_4" d="M30.625 13.125H28.4375V61.25H30.625V13.125Z" fill="var(--fill-0, #FFFEF7)"/>
<path id="Vector_5" d="M41.5625 13.125H39.375V61.25H41.5625V13.125Z" fill="var(--fill-0, #FFFEF7)"/>
<path id="Vector_6" d="M28.4375 15.3125H26.25V61.25H28.4375V15.3125Z" fill="var(--fill-0, #FFFEF7)"/>
<path id="Vector_7" d="M43.75 15.3125H41.5625V61.25H43.75V15.3125Z" fill="var(--fill-0, #FFFEF7)"/>
<path id="Vector_8" d="M26.25 17.5H24.0625V61.25H26.25V17.5Z" fill="var(--fill-0, #FFFEF7)"/>
<path id="Vector_9" d="M45.9375 17.5H43.75V61.25H45.9375V17.5Z" fill="var(--fill-0, #FFFEF7)"/>
<path id="Vector_10" d="M24.0625 19.6875H21.875V61.25H24.0625V19.6875Z" fill="var(--fill-0, #FFFEF7)"/>
<path id="Vector_11" d="M48.125 19.6875H45.9375V61.25H48.125V19.6875Z" fill="var(--fill-0, #FFFEF7)"/>
<path id="Vector_12" d="M21.875 21.875H19.6875V61.25H21.875V21.875Z" fill="var(--fill-0, #FFFEF7)"/>
<path id="Vector_13" d="M50.3125 21.875H48.125V61.25H50.3125V21.875Z" fill="var(--fill-0, #FFFEF7)"/>
<path id="Vector_14" d="M19.6875 24.0625H17.5V61.25H19.6875V24.0625Z" fill="var(--fill-0, #FFFEF7)"/>
<path id="Vector_15" d="M52.5 24.0625H50.3125V61.25H52.5V24.0625Z" fill="var(--fill-0, #FFFEF7)"/>
<path id="Vector_16" d="M17.5 26.25H15.3125V59.0625H17.5V26.25Z" fill="var(--fill-0, #FFFEF7)"/>
<path id="Vector_17" d="M54.6875 26.25H52.5V59.0625H54.6875V26.25Z" fill="var(--fill-0, #FFFEF7)"/>
<path id="Vector_18" d="M15.3125 28.4375H13.125V37.1875H15.3125V28.4375Z" fill="var(--fill-0, #FFFEF7)"/>
<path id="Vector_19" d="M56.875 28.4375H54.6875V37.1875H56.875V28.4375Z" fill="var(--fill-0, #FFFEF7)"/>
<path id="Vector_20" d="M13.125 30.625H10.9375V37.1875H13.125V30.625Z" fill="var(--fill-0, #FFFEF7)"/>
<path id="Vector_21" d="M59.0625 30.625H56.875V37.1875H59.0625V30.625Z" fill="var(--fill-0, #FFFEF7)"/>
<path id="Vector_22" d="M10.9375 32.8125H8.75V37.1875H10.9375V32.8125Z" fill="var(--fill-0, #FFFEF7)"/>
<path id="Vector_23" d="M61.25 32.8125H59.0625V37.1875H61.25V32.8125Z" fill="var(--fill-0, #FFFEF7)"/>
<path id="Vector_24" d="M8.75 35H6.5625V37.1875H8.75V35Z" fill="var(--fill-0, #FFFEF7)"/>
<path id="Vector_25" d="M63.4375 35H61.25V37.1875H63.4375V35Z" fill="var(--fill-0, #FFFEF7)"/>
</g>
</svg>
