<svg preserveAspectRatio="none" width="100%" height="100%" overflow="visible" style="display: block;" viewBox="0 0 28 28" fill="none" xmlns="http://www.w3.org/2000/svg">
<g id="WR_button-06 1">
<path id="Vector" d="M23.9154 6.97648V7.80336L24.7423 7.80227L24.7412 8.62914H25.568V19.3703H24.7412L24.7423 20.1972L23.9154 20.1961V21.023H4.08516V20.1961L3.25828 20.1972L3.25937 19.3703H2.4325V8.62914H3.25937L3.25828 7.80227L4.08516 7.80336V6.97648H23.9154ZM11.521 10.2818V17.7182H12.3479V16.8919H14.0005V16.0655H15.6532V15.2392H17.3059V14.4123L18.1327 14.4134L18.1338 13.6341L17.3059 13.5871V12.7602H15.6538V11.9339H14.0011V11.1076H12.3484V10.2807H11.5221L11.521 10.2818Z" fill="var(--fill-0, black)"/>
<path id="Vector_2" d="M11.521 10.2818L12.3479 10.2812L12.3473 11.1081H14V11.9345H15.6527V12.7608H17.3053L17.3048 13.5871L18.1327 13.6347L18.1316 14.4134L17.3048 14.4129L17.3053 15.2392H15.6527V16.0655H14V16.8919H12.3473L12.3479 17.7188L11.521 17.7182V10.2818Z" fill="var(--fill-0, white)"/>
</g>
</svg>
