<svg preserveAspectRatio="none" width="100%" height="100%" overflow="visible" style="display: block;" viewBox="0 0 28 28" fill="none" xmlns="http://www.w3.org/2000/svg">
<g id="WR_button-08 1">
<path id="Vector" d="M4.10484 11.1141V11.9383H5.75367V12.763H7.40305V13.5877H9.05242V14.4123H10.7018V15.237H12.3506V16.0617H14.8247V15.237H16.4741V14.4123H18.1229V13.5877H20.597V12.763H22.2463V11.9383H23.8952V11.1141H25.5445V21.0093L24.7193 21.0087L24.7204 21.834L23.8946 21.8334L23.8952 22.6581H4.10484L4.10539 21.8334L3.27961 21.834L3.2807 21.0087L2.45547 21.0093V11.1141H4.10484Z" fill="var(--fill-0, black)"/>
<path id="Vector_2" d="M23.8952 5.34187L23.8946 6.16656L24.7204 6.16602L24.7193 6.99125L25.5445 6.9907V8.64008H23.8952V9.46477H22.2463V10.2895H20.597V11.1141H18.1229V11.9383H16.4741V12.763H14.8247V13.5877H12.3506V12.763H10.7018V11.9383H9.05242V11.1141H7.40305V10.2895H5.75367V9.46477H4.10484V8.64008H2.45547V6.9907L3.2807 6.99125L3.27961 6.16602L4.10539 6.16656L4.10484 5.34187H23.8952Z" fill="var(--fill-0, black)"/>
</g>
</svg>
