<svg preserveAspectRatio="none" width="100%" height="100%" overflow="visible" style="display: block;" viewBox="0 0 39.9996 22" fill="none" xmlns="http://www.w3.org/2000/svg">
<g id="Group 21">
<path id="Vector" d="M22.4567 4.66255e-05H20.2638V22H22.4567V4.66255e-05Z" fill="var(--fill-0, #72A787)"/>
<path id="Vector_2" d="M26.8436 3.95171H22.0509V17.6003H26.8436V3.95171Z" fill="var(--fill-0, #72A787)"/>
<path id="Vector_3" d="M31.2285 5.94145H26.4359V15.6107H31.2285V5.94145Z" fill="var(--fill-0, #72A787)"/>
<path id="Vector_4" d="M35.6131 7.69975H30.8204V14.2998H35.6131V7.69975Z" fill="var(--fill-0, #72A787)"/>
<path id="Vector_5" d="M24.652 2.19975H22.4591V4.39975H24.652V2.19975Z" fill="var(--fill-0, #72A787)"/>
<path id="Vector_6" d="M26.8435 2.19975H24.6507V4.39975H26.8435V2.19975Z" fill="var(--fill-0, #72A787)"/>
<path id="Vector_7" d="M24.652 17.6001H22.4591V19.8001H24.652V17.6001Z" fill="var(--fill-0, #72A787)"/>
<path id="Vector_8" d="M26.8435 17.6001H24.6507V19.8001H26.8435V17.6001Z" fill="var(--fill-0, #72A787)"/>
<path id="Vector_9" d="M29.0348 15.4H26.8419V17.6H29.0348V15.4Z" fill="var(--fill-0, #72A787)"/>
<path id="Vector_10" d="M31.2301 15.4H29.0372V17.6H31.2301V15.4Z" fill="var(--fill-0, #72A787)"/>
<path id="Vector_11" d="M29.0348 4.39995H26.8419V6.59995H29.0348V4.39995Z" fill="var(--fill-0, #72A787)"/>
<path id="Vector_12" d="M31.2301 4.39995H29.0372V6.59995H31.2301V4.39995Z" fill="var(--fill-0, #72A787)"/>
<path id="Vector_13" d="M33.4215 13.1998H31.2286V15.3998H33.4215V13.1998Z" fill="var(--fill-0, #72A787)"/>
<path id="Vector_14" d="M35.6168 13.1998H33.4239V15.3998H35.6168V13.1998Z" fill="var(--fill-0, #72A787)"/>
<path id="Vector_15" d="M33.4215 6.60014H31.2286V8.80014H33.4215V6.60014Z" fill="var(--fill-0, #72A787)"/>
<path id="Vector_16" d="M35.6168 6.60014H33.4239V8.80014H35.6168V6.60014Z" fill="var(--fill-0, #72A787)"/>
<path id="Vector_17" d="M37.808 8.80034H35.6151V11.0003H37.808V8.80034Z" fill="var(--fill-0, #72A787)"/>
<path id="Vector_18" d="M39.9996 9.89995H37.8068V12.1H39.9996V9.89995Z" fill="var(--fill-0, #72A787)"/>
<path id="Vector_19" d="M37.808 11.0001H35.6151V13.2001H37.808V11.0001Z" fill="var(--fill-0, #72A787)"/>
<rect id="Rectangle 55" x="0.000107424" y="7.85698" width="22.7121" height="5.5" fill="var(--fill-0, #72A787)"/>
</g>
</svg>
