<svg preserveAspectRatio="none" width="100%" height="100%" overflow="visible" style="display: block;" viewBox="0 0 39.9995 22" fill="none" xmlns="http://www.w3.org/2000/svg">
<g id="Group 20">
<path id="Vector" d="M22.4566 0H20.2637V22H22.4566V0Z" fill="var(--fill-0, #72A787)"/>
<path id="Vector_2" d="M26.8434 3.95166H22.0508V17.6003H26.8434V3.95166Z" fill="var(--fill-0, #72A787)"/>
<path id="Vector_3" d="M31.2284 5.94141H26.4358V15.6107H31.2284V5.94141Z" fill="var(--fill-0, #72A787)"/>
<path id="Vector_4" d="M35.613 7.69971H30.8203V14.2997H35.613V7.69971Z" fill="var(--fill-0, #72A787)"/>
<path id="Vector_5" d="M24.6519 2.19971H22.459V4.39971H24.6519V2.19971Z" fill="var(--fill-0, #72A787)"/>
<path id="Vector_6" d="M26.8434 2.19971H24.6505V4.39971H26.8434V2.19971Z" fill="var(--fill-0, #72A787)"/>
<path id="Vector_7" d="M24.6519 17.6001H22.459V19.8001H24.6519V17.6001Z" fill="var(--fill-0, #72A787)"/>
<path id="Vector_8" d="M26.8434 17.6001H24.6505V19.8001H26.8434V17.6001Z" fill="var(--fill-0, #72A787)"/>
<path id="Vector_9" d="M29.0347 15.3999H26.8418V17.5999H29.0347V15.3999Z" fill="var(--fill-0, #72A787)"/>
<path id="Vector_10" d="M31.23 15.3999H29.0371V17.5999H31.23V15.3999Z" fill="var(--fill-0, #72A787)"/>
<path id="Vector_11" d="M29.0347 4.3999H26.8418V6.5999H29.0347V4.3999Z" fill="var(--fill-0, #72A787)"/>
<path id="Vector_12" d="M31.23 4.3999H29.0371V6.5999H31.23V4.3999Z" fill="var(--fill-0, #72A787)"/>
<path id="Vector_13" d="M33.4214 13.1997H31.2285V15.3997H33.4214V13.1997Z" fill="var(--fill-0, #72A787)"/>
<path id="Vector_14" d="M35.6167 13.1997H33.4238V15.3997H35.6167V13.1997Z" fill="var(--fill-0, #72A787)"/>
<path id="Vector_15" d="M33.4214 6.6001H31.2285V8.8001H33.4214V6.6001Z" fill="var(--fill-0, #72A787)"/>
<path id="Vector_16" d="M35.6167 6.6001H33.4238V8.8001H35.6167V6.6001Z" fill="var(--fill-0, #72A787)"/>
<path id="Vector_17" d="M37.8079 8.80029H35.615V11.0003H37.8079V8.80029Z" fill="var(--fill-0, #72A787)"/>
<path id="Vector_18" d="M39.9995 9.8999H37.8066V12.0999H39.9995V9.8999Z" fill="var(--fill-0, #72A787)"/>
<path id="Vector_19" d="M37.8079 11H35.615V13.2H37.8079V11Z" fill="var(--fill-0, #72A787)"/>
<rect id="Rectangle 55" y="7.85693" width="22.7121" height="5.5" fill="var(--fill-0, #72A787)"/>
</g>
</svg>
