<svg preserveAspectRatio="none" width="100%" height="100%" overflow="visible" style="display: block;" viewBox="0 0 24.8446 24.8446" fill="none" xmlns="http://www.w3.org/2000/svg">
<g id="WR_button-07 1">
<path id="Vector" d="M4.64672 1.81967V2.52668L5.35421 2.52571L5.35324 3.23368L6.06073 3.23271L6.06024 3.9402L6.76773 3.93972L6.76725 4.6472L7.47473 4.64672L7.47376 5.35421L8.18174 5.35324L8.18077 6.06073L8.88826 6.06024L8.88777 6.76773L9.59526 6.76725L9.59429 7.47473L10.3023 7.47376L10.3013 8.18174L11.0088 8.18077L11.0083 8.88826L11.7158 8.88777L11.7153 9.59478H13.1293L13.1288 8.88777L13.8363 8.88826L13.8358 8.18077L14.5433 8.18174L14.5423 7.47376L15.2503 7.47473L15.2494 6.76725L15.9568 6.76773L15.9564 6.06024L16.6638 6.06073L16.6629 5.35324L17.3708 5.35421L17.3699 4.64672L18.0774 4.6472L18.0769 3.93972L18.7844 3.9402L18.7839 3.23271L19.4914 3.23368L19.4904 2.52571L20.1979 2.52668V1.81967H22.3184L22.3179 2.52668L23.0249 2.52619V4.64672H22.3179L22.3189 5.35421L21.6109 5.35324L21.6119 6.06073L20.9044 6.06024L20.9049 6.76773L20.1974 6.76725L20.1979 7.47473L19.4904 7.47376L19.4914 8.18174L18.7839 8.18077L18.7844 8.88826L18.0769 8.88777L18.0774 9.59526L17.3699 9.59429L17.3708 10.3023L16.6629 10.3013L16.6638 11.0088L15.9564 11.0083L15.9568 11.7158L15.2498 11.7153V13.1293L15.9568 13.1288L15.9564 13.8363L16.6638 13.8358L16.6629 14.5433L17.3708 14.5423L17.3699 15.2503L18.0774 15.2494L18.0769 15.9568L18.7844 15.9564L18.7839 16.6638L19.4914 16.6629L19.4904 17.3708L20.1979 17.3699L20.1974 18.0774L20.9049 18.0769L20.9044 18.7844L21.6119 18.7839L21.6109 19.4914L22.3189 19.4904L22.3179 20.1979H23.0249V22.3184L22.3179 22.3179L22.3184 23.0249H20.1979V22.3179L19.4904 22.3189L19.4914 21.6109L18.7839 21.6119L18.7844 20.9044L18.0769 20.9049L18.0774 20.1974L17.3699 20.1979L17.3708 19.4904L16.6629 19.4914L16.6638 18.7839L15.9564 18.7844L15.9568 18.0769L15.2494 18.0774L15.2503 17.3699L14.5423 17.3708L14.5433 16.6629L13.8358 16.6638L13.8363 15.9564L13.1288 15.9568L13.1293 15.2498H11.7153L11.7158 15.9568L11.0083 15.9564L11.0088 16.6638L10.3013 16.6629L10.3023 17.3708L9.59429 17.3699L9.59526 18.0774L8.88777 18.0769L8.88826 18.7844L8.18077 18.7839L8.18174 19.4914L7.47376 19.4904L7.47473 20.1979L6.76725 20.1974L6.76773 20.9049L6.06024 20.9044L6.06073 21.6119L5.35324 21.6109L5.35421 22.3189L4.64672 22.3179V23.0249H2.52619L2.52668 22.3179L1.81967 22.3184V20.1979H2.52668L2.52571 19.4904L3.23368 19.4914L3.23271 18.7839L3.9402 18.7844L3.93972 18.0769L4.6472 18.0774L4.64672 17.3699L5.35421 17.3708L5.35324 16.6629L6.06073 16.6638L6.06024 15.9564L6.76773 15.9568L6.76725 15.2494L7.47473 15.2503L7.47376 14.5423L8.18174 14.5433L8.18077 13.8358L8.88826 13.8363L8.88777 13.1288L9.59478 13.1293V11.7153L8.88777 11.7158L8.88826 11.0083L8.18077 11.0088L8.18174 10.3013L7.47376 10.3023L7.47473 9.59429L6.76725 9.59526L6.76773 8.88777L6.06024 8.88826L6.06073 8.18077L5.35324 8.18174L5.35421 7.47376L4.64672 7.47473L4.6472 6.76725L3.93972 6.76773L3.9402 6.06024L3.23271 6.06073L3.23368 5.35324L2.52571 5.35421L2.52668 4.64672H1.81967V2.52619L2.52668 2.52668L2.52619 1.81967H4.64672Z" fill="var(--fill-0, #99C4A5)"/>
</g>
</svg>
